<svg xmlns="http://www.w3.org/2000/svg" xmlns:xlink="http://www.w3.org/1999/xlink" width="500" zoomAndPan="magnify" viewBox="0 0 375 374.999991" height="500" preserveAspectRatio="xMidYMid meet" version="1.0"><defs><filter x="0%" y="0%" width="100%" height="100%" id="b07dd4c057"><feColorMatrix values="0 0 0 0 1 0 0 0 0 1 0 0 0 0 1 0 0 0 1 0" color-interpolation-filters="sRGB"/></filter><mask id="7a4e22daa5"><g filter="url(#b07dd4c057)"><rect x="-37.5" width="450" fill="#000000" y="-37.499999" height="449.999989" fill-opacity="0.23"/></g></mask><clipPath id="597c8e510f"><path d="M 0 0 L 375 0 L 375 375 L 0 375 Z M 0 0 " clip-rule="nonzero"/></clipPath><clipPath id="360f13c07b"><rect x="0" width="375" y="0" height="375"/></clipPath></defs><g mask="url(#7a4e22daa5)"><g transform="matrix(1, 0, 0, 1, 0, 0)"><g clip-path="url(#360f13c07b)"><g clip-path="url(#597c8e510f)"><rect x="-82.5" width="540" fill="#ffffff" height="539.999987" y="-82.499998" fill-opacity="1"/><path fill="#cda759" d="M 381.753906 290.472656 L 374.730469 297.496094 L 367.707031 290.472656 L 374.730469 283.453125 Z M 327.921875 325.582031 L 320.898438 318.558594 L 358.347656 281.113281 L 320.898438 243.664062 L 327.921875 236.644531 L 372.390625 281.113281 Z M 318.558594 334.941406 L 281.113281 297.496094 L 243.664062 334.941406 L 236.644531 327.921875 L 281.113281 283.453125 L 325.582031 327.921875 Z M 309.195312 344.304688 L 281.113281 316.21875 L 253.023438 344.304688 L 246.003906 337.28125 L 281.113281 302.175781 L 316.21875 337.28125 Z M 299.835938 353.664062 L 281.113281 334.941406 L 262.390625 353.664062 L 255.367188 346.644531 L 281.113281 320.898438 L 306.855469 346.644531 Z M 290.476562 363.027344 L 281.113281 353.664062 L 271.75 363.027344 L 264.730469 356.003906 L 281.113281 339.625 L 297.496094 356.003906 Z M 281.113281 372.390625 L 274.089844 365.367188 L 281.113281 358.347656 L 288.132812 365.367188 Z M 189.835938 281.113281 L 234.304688 236.644531 L 241.324219 243.664062 L 203.878906 281.113281 L 241.324219 318.558594 L 234.304688 325.582031 Z M 187.496094 372.390625 L 143.027344 327.921875 L 150.046875 320.898438 L 187.496094 358.347656 L 224.941406 320.898438 L 231.964844 327.921875 Z M 203.878906 374.730469 L 196.855469 381.75 L 189.835938 374.730469 L 196.855469 367.707031 Z M 178.132812 381.75 L 171.113281 374.730469 L 178.132812 367.707031 L 185.15625 374.730469 Z M 133.664062 318.558594 L 171.113281 281.113281 L 133.664062 243.664062 L 140.6875 236.644531 L 185.15625 281.113281 L 140.6875 325.582031 Z M 131.324219 334.941406 L 93.878906 297.496094 L 56.429688 334.941406 L 49.410156 327.921875 L 93.878906 283.453125 L 138.347656 327.921875 Z M 121.964844 344.304688 L 93.878906 316.21875 L 65.792969 344.304688 L 58.773438 337.28125 L 93.878906 302.175781 L 128.984375 337.28125 Z M 112.601562 353.664062 L 93.878906 334.941406 L 75.15625 353.664062 L 68.132812 346.644531 L 93.878906 320.898438 L 119.621094 346.644531 Z M 103.238281 363.027344 L 93.878906 353.664062 L 84.515625 363.027344 L 77.496094 356.003906 L 93.878906 339.625 L 110.261719 356.003906 Z M 93.878906 372.390625 L 86.855469 365.367188 L 93.878906 358.347656 L 100.898438 365.367188 Z M 2.601562 281.113281 L 47.070312 236.644531 L 54.089844 243.664062 L 16.644531 281.113281 L 54.089844 318.558594 L 47.070312 325.582031 Z M 0.261719 297.496094 L -6.761719 290.472656 L 0.261719 283.453125 L 7.28125 290.472656 Z M -6.761719 271.75 L 0.261719 264.730469 L 7.28125 271.75 L 0.261719 278.773438 Z M 40.046875 224.941406 L 77.496094 187.496094 L 40.046875 150.046875 L 47.070312 143.027344 L 91.539062 187.496094 L 47.070312 231.964844 Z M 30.6875 215.578125 L 58.773438 187.496094 L 30.6875 159.410156 L 37.707031 152.386719 L 72.8125 187.496094 L 37.707031 222.601562 Z M 21.324219 206.21875 L 40.046875 187.496094 L 21.324219 168.773438 L 28.347656 161.75 L 54.089844 187.496094 L 28.347656 213.238281 Z M 11.964844 196.855469 L 21.324219 187.496094 L 11.964844 178.132812 L 18.984375 171.113281 L 35.367188 187.496094 L 18.984375 203.878906 Z M 2.601562 187.496094 L 9.621094 180.472656 L 16.644531 187.496094 L 9.621094 194.515625 Z M 2.601562 93.878906 L 47.070312 49.410156 L 54.089844 56.433594 L 16.644531 93.878906 L 54.089844 131.328125 L 47.070312 138.347656 Z M 0.261719 110.261719 L -6.761719 103.238281 L 0.261719 96.21875 L 7.28125 103.238281 Z M -6.761719 84.519531 L 0.261719 77.496094 L 7.28125 84.519531 L 0.261719 91.539062 Z M 56.429688 40.046875 L 93.878906 77.496094 L 131.324219 40.046875 L 138.347656 47.070312 L 93.878906 91.539062 L 49.410156 47.070312 Z M 65.792969 30.6875 L 93.878906 58.773438 L 121.964844 30.6875 L 128.984375 37.707031 L 93.878906 72.8125 L 58.773438 37.707031 Z M 75.15625 21.324219 L 93.878906 40.046875 L 112.601562 21.324219 L 119.621094 28.347656 L 93.878906 54.089844 L 68.132812 28.347656 Z M 84.515625 11.964844 L 93.878906 21.324219 L 103.238281 11.964844 L 110.261719 18.984375 L 93.878906 35.367188 L 77.496094 18.984375 Z M 93.878906 2.601562 L 100.898438 9.625 L 93.878906 16.644531 L 86.855469 9.625 Z M 185.15625 93.878906 L 140.6875 138.347656 L 133.664062 131.328125 L 171.113281 93.878906 L 133.664062 56.433594 L 140.6875 49.410156 Z M 187.496094 2.601562 L 231.964844 47.070312 L 224.941406 54.089844 L 187.496094 16.644531 L 150.046875 54.089844 L 143.027344 47.070312 Z M 171.113281 0.261719 L 178.132812 -6.757812 L 185.15625 0.261719 L 178.132812 7.28125 Z M 196.855469 -6.757812 L 203.878906 0.261719 L 196.855469 7.28125 L 189.835938 0.261719 Z M 241.324219 56.433594 L 203.878906 93.878906 L 241.324219 131.328125 L 234.304688 138.347656 L 189.835938 93.878906 L 234.304688 49.410156 Z M 243.664062 40.046875 L 281.113281 77.496094 L 318.558594 40.046875 L 325.582031 47.070312 L 281.113281 91.539062 L 236.644531 47.070312 Z M 253.023438 30.6875 L 281.113281 58.773438 L 309.195312 30.6875 L 316.21875 37.707031 L 281.113281 72.8125 L 246.003906 37.707031 Z M 262.390625 21.324219 L 281.113281 40.046875 L 299.835938 21.324219 L 306.855469 28.347656 L 281.113281 54.089844 L 255.367188 28.347656 Z M 271.75 11.964844 L 281.113281 21.324219 L 290.476562 11.964844 L 297.496094 18.984375 L 281.113281 35.367188 L 264.730469 18.984375 Z M 281.113281 2.601562 L 288.132812 9.625 L 281.113281 16.644531 L 274.089844 9.625 Z M 372.390625 93.878906 L 327.921875 138.347656 L 320.898438 131.328125 L 358.347656 93.878906 L 320.898438 56.433594 L 327.921875 49.410156 Z M 374.730469 77.496094 L 381.753906 84.519531 L 374.730469 91.539062 L 367.707031 84.519531 Z M 381.753906 103.238281 L 374.730469 110.261719 L 367.707031 103.238281 L 374.730469 96.21875 Z M 281.113281 128.984375 L 253.023438 157.070312 L 246.003906 150.046875 L 281.113281 114.941406 L 316.21875 150.046875 L 309.195312 157.070312 Z M 281.113281 147.707031 L 262.390625 166.429688 L 255.367188 159.410156 L 281.113281 133.664062 L 306.855469 159.410156 L 299.835938 166.429688 Z M 281.113281 166.429688 L 271.75 175.792969 L 264.730469 168.773438 L 281.113281 152.386719 L 297.496094 168.773438 L 290.476562 175.792969 Z M 274.089844 178.132812 L 281.113281 171.113281 L 288.132812 178.132812 L 281.113281 185.15625 Z M 281.113281 203.878906 L 274.089844 196.855469 L 281.113281 189.835938 L 288.132812 196.855469 Z M 281.113281 222.601562 L 264.730469 206.21875 L 271.75 199.199219 L 281.113281 208.558594 L 290.476562 199.199219 L 297.496094 206.21875 Z M 309.195312 217.921875 L 316.21875 224.941406 L 281.113281 260.050781 L 246.003906 224.941406 L 253.023438 217.921875 L 281.113281 246.003906 Z M 281.113281 241.324219 L 255.367188 215.578125 L 262.390625 208.558594 L 281.113281 227.28125 L 299.835938 208.558594 L 306.855469 215.578125 Z M 297.496094 93.878906 L 290.476562 100.898438 L 283.453125 93.878906 L 290.476562 86.855469 Z M 316.21875 93.878906 L 299.835938 110.261719 L 292.816406 103.238281 L 302.175781 93.878906 L 292.816406 84.519531 L 299.835938 77.496094 Z M 311.539062 65.792969 L 318.558594 58.773438 L 353.664062 93.878906 L 318.558594 128.984375 L 311.539062 121.964844 L 339.625 93.878906 Z M 334.941406 93.878906 L 309.195312 119.625 L 302.175781 112.601562 L 320.898438 93.878906 L 302.175781 75.15625 L 309.195312 68.132812 Z M 281.113281 96.21875 L 325.582031 140.6875 L 318.558594 147.707031 L 281.113281 110.261719 L 243.664062 147.707031 L 236.644531 140.6875 Z M 222.601562 93.878906 L 250.6875 121.964844 L 243.664062 128.984375 L 208.558594 93.878906 L 243.664062 58.773438 L 250.6875 65.792969 Z M 241.324219 93.878906 L 260.046875 112.601562 L 253.023438 119.625 L 227.28125 93.878906 L 253.023438 68.132812 L 260.046875 75.15625 Z M 271.75 86.855469 L 278.773438 93.878906 L 271.75 100.898438 L 264.730469 93.878906 Z M 260.046875 93.878906 L 269.410156 103.238281 L 262.390625 110.261719 L 246.003906 93.878906 L 262.390625 77.496094 L 269.410156 84.519531 Z M 227.28125 224.941406 L 264.730469 187.496094 L 227.28125 150.046875 L 234.304688 143.027344 L 278.773438 187.496094 L 234.304688 231.964844 Z M 171.113281 187.496094 L 178.132812 180.472656 L 185.15625 187.496094 L 178.132812 194.515625 Z M 152.386719 187.496094 L 168.773438 171.113281 L 175.792969 178.132812 L 166.429688 187.496094 L 175.792969 196.855469 L 168.773438 203.878906 Z M 157.070312 215.578125 L 150.046875 222.601562 L 114.941406 187.496094 L 150.046875 152.386719 L 157.070312 159.410156 L 128.984375 187.496094 Z M 133.664062 187.496094 L 159.410156 161.75 L 166.429688 168.773438 L 147.707031 187.496094 L 166.429688 206.21875 L 159.410156 213.238281 Z M 246.003906 187.496094 L 217.921875 159.410156 L 224.941406 152.386719 L 260.046875 187.496094 L 224.941406 222.601562 L 217.921875 215.578125 Z M 227.28125 187.496094 L 208.558594 168.773438 L 215.578125 161.75 L 241.324219 187.496094 L 215.578125 213.238281 L 208.558594 206.21875 Z M 196.855469 194.515625 L 189.835938 187.496094 L 196.855469 180.472656 L 203.878906 187.496094 Z M 208.558594 187.496094 L 199.199219 178.132812 L 206.21875 171.113281 L 222.601562 187.496094 L 206.21875 203.878906 L 199.199219 196.855469 Z M 187.496094 171.113281 L 224.941406 133.664062 L 231.964844 140.6875 L 187.496094 185.15625 L 143.027344 140.6875 L 150.046875 133.664062 Z M 187.496094 152.386719 L 215.578125 124.304688 L 222.601562 131.328125 L 187.496094 166.429688 L 152.386719 131.328125 L 159.410156 124.304688 Z M 187.496094 133.664062 L 206.21875 114.941406 L 213.238281 121.964844 L 187.496094 147.707031 L 161.75 121.964844 L 168.773438 114.941406 Z M 187.496094 114.941406 L 196.855469 105.582031 L 203.878906 112.601562 L 187.496094 128.984375 L 171.113281 112.601562 L 178.132812 105.582031 Z M 194.515625 103.238281 L 187.496094 110.261719 L 180.472656 103.238281 L 187.496094 96.21875 Z M 187.496094 77.496094 L 194.515625 84.519531 L 187.496094 91.539062 L 180.472656 84.519531 Z M 187.496094 58.773438 L 203.878906 75.15625 L 196.855469 82.175781 L 187.496094 72.8125 L 178.132812 82.175781 L 171.113281 75.15625 Z M 159.410156 63.453125 L 152.386719 56.433594 L 187.496094 21.324219 L 222.601562 56.433594 L 215.578125 63.453125 L 187.496094 35.367188 Z M 187.496094 40.046875 L 213.238281 65.792969 L 206.21875 72.8125 L 187.496094 54.089844 L 168.773438 72.8125 L 161.75 65.792969 Z M 96.21875 187.496094 L 140.6875 143.027344 L 147.707031 150.046875 L 110.261719 187.496094 L 147.707031 224.941406 L 140.6875 231.964844 Z M 93.878906 246.003906 L 121.964844 217.921875 L 128.984375 224.941406 L 93.878906 260.050781 L 58.773438 224.941406 L 65.792969 217.921875 Z M 93.878906 227.28125 L 112.601562 208.558594 L 119.621094 215.578125 L 93.878906 241.324219 L 68.132812 215.578125 L 75.15625 208.558594 Z M 93.878906 208.558594 L 103.238281 199.199219 L 110.261719 206.21875 L 93.878906 222.601562 L 77.496094 206.21875 L 84.515625 199.199219 Z M 100.898438 196.855469 L 93.878906 203.878906 L 86.855469 196.855469 L 93.878906 189.835938 Z M 93.878906 171.113281 L 100.898438 178.132812 L 93.878906 185.15625 L 86.855469 178.132812 Z M 93.878906 152.386719 L 110.261719 168.773438 L 103.238281 175.792969 L 93.878906 166.429688 L 84.515625 175.792969 L 77.496094 168.773438 Z M 93.878906 133.664062 L 119.621094 159.410156 L 112.601562 166.429688 L 93.878906 147.707031 L 75.15625 166.429688 L 68.132812 159.410156 Z M 93.878906 114.941406 L 128.984375 150.046875 L 121.964844 157.070312 L 93.878906 128.984375 L 65.792969 157.070312 L 58.773438 150.046875 Z M 110.261719 93.878906 L 103.238281 100.898438 L 96.21875 93.878906 L 103.238281 86.855469 Z M 128.984375 93.878906 L 112.601562 110.261719 L 105.582031 103.238281 L 114.941406 93.878906 L 105.582031 84.519531 L 112.601562 77.496094 Z M 124.304688 65.792969 L 131.324219 58.773438 L 166.429688 93.878906 L 131.324219 128.984375 L 124.304688 121.964844 L 152.386719 93.878906 Z M 147.707031 93.878906 L 121.964844 119.625 L 114.941406 112.601562 L 133.664062 93.878906 L 114.941406 75.15625 L 121.964844 68.132812 Z M 93.878906 96.21875 L 138.347656 140.6875 L 131.324219 147.707031 L 93.878906 110.261719 L 56.429688 147.707031 L 49.410156 140.6875 Z M 35.367188 93.878906 L 63.453125 121.964844 L 56.429688 128.984375 L 21.324219 93.878906 L 56.429688 58.773438 L 63.453125 65.792969 Z M 54.089844 93.878906 L 72.8125 112.601562 L 65.792969 119.625 L 40.046875 93.878906 L 65.792969 68.132812 L 72.8125 75.15625 Z M 84.515625 86.855469 L 91.539062 93.878906 L 84.515625 100.898438 L 77.496094 93.878906 Z M 72.8125 93.878906 L 82.175781 103.238281 L 75.15625 110.261719 L 58.773438 93.878906 L 75.15625 77.496094 L 82.175781 84.519531 Z M 77.496094 281.113281 L 84.515625 274.089844 L 91.539062 281.113281 L 84.515625 288.132812 Z M 58.773438 281.113281 L 75.15625 264.730469 L 82.175781 271.75 L 72.8125 281.113281 L 82.175781 290.472656 L 75.15625 297.496094 Z M 63.453125 309.199219 L 56.429688 316.21875 L 21.324219 281.113281 L 56.429688 246.003906 L 63.453125 253.027344 L 35.367188 281.113281 Z M 40.046875 281.113281 L 65.792969 255.367188 L 72.8125 262.390625 L 54.089844 281.113281 L 72.8125 299.835938 L 65.792969 306.855469 Z M 93.878906 278.773438 L 49.410156 234.304688 L 56.429688 227.28125 L 93.878906 264.730469 L 131.324219 227.28125 L 138.347656 234.304688 Z M 152.386719 281.113281 L 124.304688 253.027344 L 131.324219 246.003906 L 166.429688 281.113281 L 131.324219 316.21875 L 124.304688 309.199219 Z M 133.664062 281.113281 L 114.941406 262.390625 L 121.964844 255.367188 L 147.707031 281.113281 L 121.964844 306.855469 L 114.941406 299.835938 Z M 103.238281 288.132812 L 96.21875 281.113281 L 103.238281 274.089844 L 110.261719 281.113281 Z M 114.941406 281.113281 L 105.582031 271.75 L 112.601562 264.730469 L 128.984375 281.113281 L 112.601562 297.496094 L 105.582031 290.472656 Z M 187.496094 203.878906 L 150.046875 241.324219 L 143.027344 234.304688 L 187.496094 189.835938 L 231.964844 234.304688 L 224.941406 241.324219 Z M 187.496094 222.601562 L 159.410156 250.6875 L 152.386719 243.664062 L 187.496094 208.558594 L 222.601562 243.664062 L 215.578125 250.6875 Z M 187.496094 241.324219 L 168.773438 260.050781 L 161.75 253.027344 L 187.496094 227.28125 L 213.238281 253.027344 L 206.21875 260.050781 Z M 187.496094 260.050781 L 178.132812 269.410156 L 171.113281 262.390625 L 187.496094 246.003906 L 203.878906 262.390625 L 196.855469 269.410156 Z M 180.472656 271.75 L 187.496094 264.730469 L 194.515625 271.75 L 187.496094 278.773438 Z M 187.496094 297.496094 L 180.472656 290.472656 L 187.496094 283.453125 L 194.515625 290.472656 Z M 187.496094 316.21875 L 171.113281 299.835938 L 178.132812 292.816406 L 187.496094 302.175781 L 196.855469 292.816406 L 203.878906 299.835938 Z M 215.578125 311.539062 L 222.601562 318.558594 L 187.496094 353.664062 L 152.386719 318.558594 L 159.410156 311.539062 L 187.496094 339.625 Z M 187.496094 334.941406 L 161.75 309.199219 L 168.773438 302.175781 L 187.496094 320.898438 L 206.21875 302.175781 L 213.238281 309.199219 Z M 264.730469 281.113281 L 271.75 274.089844 L 278.773438 281.113281 L 271.75 288.132812 Z M 246.003906 281.113281 L 262.390625 264.730469 L 269.410156 271.75 L 260.046875 281.113281 L 269.410156 290.472656 L 262.390625 297.496094 Z M 250.6875 309.199219 L 243.664062 316.21875 L 208.558594 281.113281 L 243.664062 246.003906 L 250.6875 253.027344 L 222.601562 281.113281 Z M 227.28125 281.113281 L 253.023438 255.367188 L 260.046875 262.390625 L 241.324219 281.113281 L 260.046875 299.835938 L 253.023438 306.855469 Z M 281.113281 278.773438 L 236.644531 234.304688 L 243.664062 227.28125 L 281.113281 264.730469 L 318.558594 227.28125 L 325.582031 234.304688 Z M 339.625 281.113281 L 311.539062 253.027344 L 318.558594 246.003906 L 353.664062 281.113281 L 318.558594 316.21875 L 311.539062 309.199219 Z M 320.898438 281.113281 L 302.175781 262.390625 L 309.195312 255.367188 L 334.941406 281.113281 L 309.195312 306.855469 L 302.175781 299.835938 Z M 290.476562 288.132812 L 283.453125 281.113281 L 290.476562 274.089844 L 297.496094 281.113281 Z M 302.175781 281.113281 L 292.816406 271.75 L 299.835938 264.730469 L 316.21875 281.113281 L 299.835938 297.496094 L 292.816406 290.472656 Z M 334.941406 150.046875 L 297.496094 187.496094 L 334.941406 224.941406 L 327.921875 231.964844 L 283.453125 187.496094 L 327.921875 143.027344 Z M 344.300781 159.410156 L 316.21875 187.496094 L 344.300781 215.578125 L 337.28125 222.601562 L 302.175781 187.496094 L 337.28125 152.386719 Z M 353.664062 168.773438 L 334.941406 187.496094 L 353.664062 206.21875 L 346.644531 213.238281 L 320.898438 187.496094 L 346.644531 161.75 Z M 363.027344 178.132812 L 353.664062 187.496094 L 363.027344 196.855469 L 356.003906 203.878906 L 339.625 187.496094 L 356.003906 171.113281 Z M 372.390625 187.496094 L 365.367188 194.515625 L 358.347656 187.496094 L 365.367188 180.472656 Z M 374.730469 264.730469 L 381.753906 271.75 L 374.730469 278.773438 L 367.707031 271.75 Z M 372.390625 374.730469 L 365.367188 381.75 L 358.347656 374.730469 L 365.367188 367.707031 Z M 16.644531 374.730469 L 9.621094 381.75 L 2.601562 374.730469 L 9.621094 367.707031 Z M 2.601562 0.261719 L 9.621094 -6.757812 L 16.644531 0.261719 L 9.621094 7.285156 Z M 358.347656 0.261719 L 365.367188 -6.757812 L 372.390625 0.261719 L 365.367188 7.28125 Z M 386.085938 272.09375 L 386.085938 267.414062 L 384.089844 269.410156 L 374.730469 260.050781 L 365.367188 269.410156 L 358.347656 262.390625 L 374.730469 246.003906 L 386.085938 257.363281 L 386.085938 252.683594 L 374.730469 241.324219 L 356.003906 260.050781 L 348.984375 253.027344 L 374.730469 227.28125 L 386.085938 238.640625 L 386.085938 233.957031 L 374.730469 222.601562 L 346.644531 250.6875 L 339.625 243.664062 L 374.730469 208.558594 L 386.085938 219.917969 L 386.085938 215.234375 L 374.730469 203.878906 L 337.28125 241.324219 L 330.261719 234.304688 L 374.730469 189.835938 L 386.085938 201.191406 L 386.085938 192.519531 L 384.089844 194.515625 L 377.070312 187.496094 L 384.089844 180.472656 L 386.085938 182.46875 L 386.085938 173.796875 L 374.730469 185.15625 L 330.261719 140.6875 L 337.28125 133.664062 L 374.730469 171.113281 L 386.085938 159.753906 L 386.085938 155.074219 L 374.730469 166.429688 L 339.625 131.328125 L 346.644531 124.304688 L 374.730469 152.386719 L 386.085938 141.03125 L 386.085938 136.347656 L 374.730469 147.707031 L 348.984375 121.964844 L 356.003906 114.941406 L 374.730469 133.664062 L 386.085938 122.308594 L 386.085938 117.628906 L 374.730469 128.984375 L 358.347656 112.601562 L 365.367188 105.582031 L 374.730469 114.941406 L 384.089844 105.582031 L 386.085938 107.574219 L 386.085938 102.894531 L 377.070312 93.878906 L 386.085938 84.859375 L 386.085938 80.179688 L 384.089844 82.175781 L 374.730469 72.8125 L 365.367188 82.175781 L 358.347656 75.15625 L 374.730469 58.773438 L 386.085938 70.128906 L 386.085938 65.449219 L 374.730469 54.089844 L 356.003906 72.8125 L 348.984375 65.792969 L 374.730469 40.046875 L 386.085938 51.40625 L 386.085938 46.722656 L 374.730469 35.367188 L 346.644531 63.453125 L 339.625 56.433594 L 374.730469 21.324219 L 386.085938 32.683594 L 386.085938 28.003906 L 374.730469 16.644531 L 337.28125 54.089844 L 330.261719 47.070312 L 374.730469 2.601562 L 386.085938 13.960938 L 386.085938 5.285156 L 384.089844 7.28125 L 377.070312 0.261719 L 384.089844 -6.757812 L 386.085938 -4.761719 L 386.085938 -11.097656 L 383.746094 -11.097656 L 374.730469 -2.078125 L 365.710938 -11.097656 L 361.03125 -11.097656 L 363.027344 -9.101562 L 353.664062 0.261719 L 363.027344 9.625 L 356.003906 16.644531 L 339.625 0.261719 L 350.980469 -11.097656 L 346.300781 -11.097656 L 334.941406 0.261719 L 353.664062 18.984375 L 346.644531 26.003906 L 320.898438 0.261719 L 332.257812 -11.097656 L 327.578125 -11.097656 L 316.21875 0.261719 L 344.300781 28.347656 L 337.28125 35.367188 L 302.175781 0.261719 L 313.535156 -11.097656 L 308.851562 -11.097656 L 297.496094 0.261719 L 334.941406 37.707031 L 327.921875 44.726562 L 283.453125 0.261719 L 294.808594 -11.097656 L 286.136719 -11.097656 L 288.132812 -9.101562 L 281.113281 -2.078125 L 274.089844 -9.101562 L 276.085938 -11.097656 L 267.414062 -11.097656 L 278.773438 0.261719 L 234.304688 44.726562 L 227.28125 37.707031 L 264.730469 0.261719 L 253.371094 -11.097656 L 248.691406 -11.097656 L 260.046875 0.261719 L 224.941406 35.367188 L 217.921875 28.347656 L 246.003906 0.261719 L 234.648438 -11.097656 L 229.96875 -11.097656 L 241.324219 0.261719 L 215.578125 26.003906 L 208.558594 18.984375 L 227.28125 0.261719 L 215.925781 -11.097656 L 211.242188 -11.097656 L 222.601562 0.261719 L 206.21875 16.644531 L 199.199219 9.625 L 208.558594 0.261719 L 199.199219 -9.101562 L 201.191406 -11.097656 L 196.511719 -11.097656 L 187.496094 -2.078125 L 178.476562 -11.097656 L 173.796875 -11.097656 L 175.792969 -9.101562 L 166.429688 0.261719 L 175.792969 9.625 L 168.773438 16.644531 L 152.386719 0.261719 L 163.746094 -11.097656 L 159.066406 -11.097656 L 147.707031 0.261719 L 166.429688 18.984375 L 159.410156 26.003906 L 133.664062 0.261719 L 145.023438 -11.097656 L 140.339844 -11.097656 L 128.984375 0.261719 L 157.070312 28.347656 L 150.046875 35.367188 L 114.941406 0.261719 L 126.300781 -11.097656 L 121.617188 -11.097656 L 110.261719 0.261719 L 147.707031 37.707031 L 140.6875 44.726562 L 96.21875 0.261719 L 107.574219 -11.097656 L 98.902344 -11.097656 L 100.898438 -9.101562 L 93.878906 -2.078125 L 86.855469 -9.101562 L 88.851562 -11.097656 L 80.179688 -11.097656 L 91.539062 0.261719 L 47.070312 44.726562 L 40.046875 37.707031 L 77.496094 0.261719 L 66.136719 -11.097656 L 61.457031 -11.097656 L 72.8125 0.261719 L 37.707031 35.367188 L 30.6875 28.347656 L 58.773438 0.261719 L 47.414062 -11.097656 L 42.734375 -11.097656 L 54.089844 0.261719 L 28.347656 26.003906 L 21.324219 18.984375 L 40.046875 0.261719 L 28.691406 -11.097656 L 24.007812 -11.097656 L 35.367188 0.261719 L 18.984375 16.644531 L 11.964844 9.625 L 21.324219 0.261719 L 11.964844 -9.101562 L 13.960938 -11.097656 L 9.277344 -11.097656 L 0.261719 -2.078125 L -8.757812 -11.097656 L -11.097656 -11.097656 L -11.097656 -4.761719 L -9.101562 -6.757812 L -2.078125 0.261719 L -9.101562 7.28125 L -11.097656 5.285156 L -11.097656 13.960938 L 0.261719 2.601562 L 44.730469 47.070312 L 37.707031 54.089844 L 0.261719 16.644531 L -11.097656 28.003906 L -11.097656 32.683594 L 0.261719 21.324219 L 35.367188 56.433594 L 28.347656 63.453125 L 0.261719 35.367188 L -11.097656 46.722656 L -11.097656 51.40625 L 0.261719 40.046875 L 26.007812 65.792969 L 18.984375 72.8125 L 0.261719 54.089844 L -11.097656 65.449219 L -11.097656 70.128906 L 0.261719 58.773438 L 16.644531 75.15625 L 9.621094 82.175781 L 0.261719 72.8125 L -9.101562 82.175781 L -11.097656 80.179688 L -11.097656 84.859375 L -2.078125 93.878906 L -11.097656 102.894531 L -11.097656 107.574219 L -9.101562 105.582031 L 0.261719 114.941406 L 9.621094 105.582031 L 16.644531 112.601562 L 0.261719 128.984375 L -11.097656 117.628906 L -11.097656 122.308594 L 0.261719 133.664062 L 18.984375 114.941406 L 26.007812 121.964844 L 0.261719 147.707031 L -11.097656 136.347656 L -11.097656 141.03125 L 0.261719 152.386719 L 28.347656 124.304688 L 35.367188 131.328125 L 0.261719 166.429688 L -11.097656 155.074219 L -11.097656 159.753906 L 0.261719 171.113281 L 37.707031 133.664062 L 44.730469 140.6875 L 0.261719 185.15625 L -11.097656 173.796875 L -11.097656 182.46875 L -9.101562 180.472656 L -2.078125 187.496094 L -9.101562 194.515625 L -11.097656 192.519531 L -11.097656 201.191406 L 0.261719 189.835938 L 44.730469 234.304688 L 37.707031 241.324219 L 0.261719 203.878906 L -11.097656 215.234375 L -11.097656 219.917969 L 0.261719 208.558594 L 35.367188 243.664062 L 28.347656 250.6875 L 0.261719 222.601562 L -11.097656 233.957031 L -11.097656 238.640625 L 0.261719 227.28125 L 26.007812 253.027344 L 18.984375 260.050781 L 0.261719 241.324219 L -11.097656 252.683594 L -11.097656 257.363281 L 0.261719 246.003906 L 16.644531 262.390625 L 9.621094 269.410156 L 0.261719 260.050781 L -9.101562 269.410156 L -11.097656 267.414062 L -11.097656 272.09375 L -2.078125 281.113281 L -11.097656 290.128906 L -11.097656 294.808594 L -9.101562 292.816406 L 0.261719 302.175781 L 9.621094 292.816406 L 16.644531 299.835938 L 0.261719 316.21875 L -11.097656 304.863281 L -11.097656 309.542969 L 0.261719 320.898438 L 18.984375 302.175781 L 26.007812 309.199219 L 0.261719 334.941406 L -11.097656 323.585938 L -11.097656 328.265625 L 0.261719 339.625 L 28.347656 311.539062 L 35.367188 318.558594 L 0.261719 353.664062 L -11.097656 342.308594 L -11.097656 346.988281 L 0.261719 358.347656 L 37.707031 320.898438 L 44.730469 327.921875 L 0.261719 372.390625 L -11.097656 361.03125 L -11.097656 369.703125 L -9.101562 367.707031 L -2.078125 374.730469 L -9.101562 381.75 L -11.097656 379.753906 L -11.097656 386.085938 L -8.757812 386.085938 L 0.261719 377.070312 L 9.277344 386.085938 L 13.960938 386.085938 L 11.964844 384.089844 L 21.324219 374.730469 L 11.964844 365.367188 L 18.984375 358.347656 L 35.367188 374.730469 L 24.007812 386.085938 L 28.691406 386.085938 L 40.046875 374.730469 L 21.324219 356.003906 L 28.347656 348.984375 L 54.089844 374.730469 L 42.734375 386.085938 L 47.414062 386.085938 L 58.773438 374.730469 L 30.6875 346.644531 L 37.707031 339.625 L 72.8125 374.730469 L 61.457031 386.085938 L 66.136719 386.085938 L 77.496094 374.730469 L 40.046875 337.28125 L 47.070312 330.261719 L 91.539062 374.730469 L 80.179688 386.085938 L 88.851562 386.085938 L 86.855469 384.089844 L 93.878906 377.070312 L 100.898438 384.089844 L 98.902344 386.085938 L 107.574219 386.085938 L 96.21875 374.730469 L 140.6875 330.261719 L 147.707031 337.28125 L 110.261719 374.730469 L 121.617188 386.085938 L 126.300781 386.085938 L 114.941406 374.730469 L 150.046875 339.625 L 157.070312 346.644531 L 128.984375 374.730469 L 140.339844 386.085938 L 145.023438 386.085938 L 133.664062 374.730469 L 159.410156 348.984375 L 166.429688 356.003906 L 147.707031 374.730469 L 159.066406 386.085938 L 163.746094 386.085938 L 152.386719 374.730469 L 168.773438 358.347656 L 175.792969 365.367188 L 166.429688 374.730469 L 175.792969 384.089844 L 173.796875 386.085938 L 178.476562 386.085938 L 187.496094 377.070312 L 196.511719 386.085938 L 201.191406 386.085938 L 199.199219 384.089844 L 208.558594 374.730469 L 199.199219 365.367188 L 206.21875 358.347656 L 222.601562 374.730469 L 211.242188 386.085938 L 215.925781 386.085938 L 227.28125 374.730469 L 208.558594 356.003906 L 215.578125 348.984375 L 241.324219 374.730469 L 229.96875 386.085938 L 234.648438 386.085938 L 246.003906 374.730469 L 217.921875 346.644531 L 224.941406 339.625 L 260.046875 374.730469 L 248.691406 386.085938 L 253.371094 386.085938 L 264.730469 374.730469 L 227.28125 337.28125 L 234.304688 330.261719 L 278.773438 374.730469 L 267.414062 386.085938 L 276.085938 386.085938 L 274.089844 384.089844 L 281.113281 377.070312 L 288.132812 384.089844 L 286.136719 386.085938 L 294.808594 386.085938 L 283.453125 374.730469 L 327.921875 330.261719 L 334.941406 337.28125 L 297.496094 374.730469 L 308.851562 386.085938 L 313.535156 386.085938 L 302.175781 374.730469 L 337.28125 339.625 L 344.300781 346.644531 L 316.21875 374.730469 L 327.578125 386.085938 L 332.257812 386.085938 L 320.898438 374.730469 L 346.644531 348.984375 L 353.664062 356.003906 L 334.941406 374.730469 L 346.300781 386.085938 L 350.980469 386.085938 L 339.625 374.730469 L 356.003906 358.347656 L 363.027344 365.367188 L 353.664062 374.730469 L 363.027344 384.089844 L 361.03125 386.085938 L 365.714844 386.085938 L 374.730469 377.070312 L 383.746094 386.085938 L 386.085938 386.085938 L 386.085938 379.753906 L 384.089844 381.75 L 377.070312 374.730469 L 384.089844 367.707031 L 386.085938 369.703125 L 386.085938 361.03125 L 374.730469 372.390625 L 330.261719 327.921875 L 337.28125 320.898438 L 374.730469 358.347656 L 386.085938 346.988281 L 386.085938 342.308594 L 374.730469 353.664062 L 339.625 318.558594 L 346.644531 311.539062 L 374.730469 339.625 L 386.085938 328.265625 L 386.085938 323.585938 L 374.730469 334.941406 L 348.984375 309.199219 L 356.003906 302.175781 L 374.730469 320.898438 L 386.085938 309.542969 L 386.085938 304.863281 L 374.730469 316.21875 L 358.347656 299.835938 L 365.367188 292.816406 L 374.730469 302.175781 L 384.089844 292.816406 L 386.085938 294.808594 L 386.085938 290.128906 L 377.070312 281.113281 L 386.085938 272.09375 " fill-opacity="1" fill-rule="nonzero"/></g></g></g></g></svg>